<?xml version="1.0" standalone="no"?>
<!DOCTYPE svg PUBLIC "-//W3C//DTD SVG 20010904//EN"
 "http://www.w3.org/TR/2001/REC-SVG-20010904/DTD/svg10.dtd">
<svg version="1.0" xmlns="http://www.w3.org/2000/svg"
 width="1024.000000pt" height="1024.000000pt" viewBox="0 0 1024.000000 1024.000000"
 preserveAspectRatio="xMidYMid meet">

<g transform="translate(0.000000,1024.000000) scale(0.100000,-0.100000)"
fill="#000000" stroke="none">
<path d="M0 5120 l0 -5120 5120 0 5120 0 0 5120 0 5120 -5120 0 -5120 0 0
-5120z m4813 3955 c164 -70 399 -246 517 -387 171 -203 296 -461 350 -723 27
-132 37 -381 20 -507 -17 -132 -65 -311 -105 -393 -18 -38 -31 -72 -28 -75 13
-13 133 -1 185 19 153 59 261 194 331 417 47 147 62 255 62 441 0 95 1 173 3
173 10 0 106 -226 137 -321 40 -127 88 -352 106 -504 18 -149 16 -438 -4 -575
-34 -230 -98 -421 -191 -570 -69 -111 -178 -237 -279 -323 -97 -82 -316 -211
-332 -195 -3 3 18 15 47 27 58 24 181 98 242 145 64 50 179 168 226 232 24 32
50 65 57 72 7 7 13 18 13 23 0 5 15 32 34 61 54 85 80 153 67 176 -14 26 -14
32 -1 32 6 0 10 -10 11 -22 1 -15 6 -8 15 21 7 24 16 52 19 62 4 13 1 19 -9
19 -10 0 -13 -6 -10 -15 4 -8 1 -15 -6 -15 -6 0 -11 10 -10 23 3 36 1 51 -7
43 -5 -4 -8 -13 -8 -19 0 -7 -21 -13 -52 -15 -45 -3 -53 -6 -53 -23 0 -16 -7
-19 -40 -19 -35 0 -40 3 -40 23 0 21 -4 23 -42 21 -24 -1 -60 -2 -80 -3 -31
-1 -38 -5 -38 -21 0 -18 -7 -20 -80 -20 -73 0 -80 -2 -80 -20 0 -12 7 -20 16
-20 14 0 15 -2 3 -17 -13 -15 -14 -15 -17 1 -3 16 -13 17 -80 13 -43 -2 -60
-2 -39 0 29 3 37 9 37 24 0 16 -7 19 -40 19 -22 0 -40 5 -40 10 0 6 -9 10 -20
10 -11 0 -20 5 -20 12 0 6 -11 1 -25 -12 -19 -18 -24 -31 -21 -52 2 -16 0 -26
-5 -22 -5 3 -9 11 -9 18 0 18 -24 66 -33 66 -5 0 -5 5 -1 12 4 7 3 8 -4 4 -8
-5 -2 -25 17 -64 71 -141 91 -216 91 -346 0 -88 -17 -196 -31 -196 -5 0 -4 12
2 28 6 15 13 72 16 127 5 82 2 116 -16 185 -41 167 -120 290 -270 422 -74 65
-88 90 -24 43 l38 -27 -33 32 c-22 20 -39 29 -52 25 -27 -9 -177 143 -224 228
-61 110 -79 182 -74 306 5 124 28 194 84 260 20 23 34 44 31 47 -9 10 -194
-121 -261 -185 -70 -67 -148 -160 -203 -241 -142 -212 -221 -496 -210 -765 4
-117 8 -140 42 -235 20 -58 49 -129 65 -157 15 -29 25 -53 21 -53 -4 0 -19 24
-33 53 -79 155 -117 299 -118 445 0 84 -8 110 -25 81 -4 -6 -19 -7 -37 -4 -38
9 -258 -15 -258 -27 0 -5 -10 -9 -22 -8 -48 4 -56 0 -63 -31 -13 -57 111 -359
144 -351 7 1 10 -2 6 -8 -7 -11 52 -95 100 -143 20 -19 34 -26 49 -22 17 5 18
4 6 -4 -13 -9 -12 -12 5 -26 54 -44 188 -125 255 -154 80 -36 268 -98 236 -78
-10 7 -45 38 -78 70 -33 31 -64 54 -70 51 -7 -5 -8 -2 -3 6 5 8 2 17 -6 24
-20 15 -79 98 -79 110 0 5 14 -10 32 -35 56 -78 191 -206 258 -244 36 -20 56
-34 45 -30 -11 3 -42 12 -70 20 -232 60 -447 172 -575 298 -73 72 -73 72 -127
153 -148 218 -204 495 -157 775 28 165 67 264 193 493 150 271 181 374 188
621 7 213 -7 290 -84 473 -8 18 115 -53 172 -101 59 -50 141 -136 173 -184 41
-61 94 -182 100 -228 2 -25 6 -45 8 -45 1 0 23 21 49 48 47 48 147 232 200
367 124 313 60 668 -156 870 -46 43 -48 47 -22 41 15 -4 63 -22 106 -41z m37
-2245 c58 -114 130 -196 271 -311 53 -43 119 -103 147 -135 94 -105 161 -275
162 -410 0 -101 -37 -231 -84 -289 -9 -11 -1 14 18 55 19 41 37 95 42 120 10
60 7 193 -7 255 -13 56 -57 150 -66 141 -4 -3 -13 0 -21 7 -13 10 -15 9 -9 -6
4 -11 3 -16 -4 -12 -5 4 -7 15 -4 25 3 10 -1 25 -10 34 -9 9 -12 16 -6 16 6 0
18 -14 26 -31 9 -17 19 -29 21 -26 6 6 -22 64 -33 70 -5 2 -19 1 -33 -4 -14
-4 -19 -7 -12 -8 6 -1 12 -6 12 -12 0 -8 -5 -7 -15 1 -9 8 -13 21 -9 32 5 17
2 19 -15 13 -23 -7 -28 4 -9 23 9 9 17 6 34 -15 12 -16 26 -24 30 -20 4 4 -6
22 -23 39 l-31 31 -20 -32 c-14 -23 -22 -29 -27 -20 -5 8 2 21 18 35 26 22 26
22 6 40 -15 14 -22 15 -28 6 -5 -9 -14 -5 -31 13 -26 28 -17 34 12 8 11 -9 18
-11 18 -5 0 7 -3 12 -7 12 -5 0 -37 25 -73 55 -35 30 -68 55 -74 55 -5 0 9
-13 30 -28 52 -38 62 -52 62 -84 -1 -29 -13 -37 -21 -15 -4 7 -6 8 -6 1 -1 -6
6 -17 14 -24 12 -10 15 -10 15 1 0 11 3 11 11 -1 8 -12 9 -9 4 10 -5 21 -4 22
5 7 6 -9 8 -22 5 -27 -8 -13 1 -13 26 0 11 6 24 8 29 5 15 -9 -16 -36 -33 -29
-8 3 -18 0 -23 -7 -5 -9 -2 -10 12 -6 18 7 18 6 2 -7 -22 -16 -23 -30 -2 -22
9 3 12 2 9 -4 -4 -6 9 -27 28 -48 19 -20 47 -50 62 -67 17 -19 25 -23 21 -12
-4 11 -2 16 5 12 6 -4 8 -14 5 -22 -4 -8 7 -38 23 -67 16 -28 36 -75 45 -105
21 -72 21 -219 0 -296 -9 -33 -16 -67 -16 -75 0 -9 -15 -34 -34 -55 l-34 -40
30 60 c40 78 59 162 60 255 0 171 -55 280 -235 461 -129 129 -209 225 -243
294 -33 67 -70 196 -76 270 l-6 70 18 -55 c10 -30 29 -75 42 -100z m-314 -267
c-9 -81 9 -281 34 -388 28 -117 109 -323 162 -411 57 -95 119 -174 174 -223
26 -23 44 -41 40 -41 -14 0 -86 41 -83 48 1 4 -18 34 -43 67 -107 141 -178
276 -225 429 -11 38 -20 54 -26 45 -4 -7 -5 -17 -3 -21 3 -4 -2 -5 -10 -2 -14
5 -14 8 -1 21 19 18 19 22 -5 112 -11 41 -20 91 -21 110 l-1 36 -14 -30 c-12
-24 -14 -25 -8 -5 4 14 8 57 9 95 3 57 2 64 -6 35 -5 -19 -12 -91 -15 -160
-10 -178 20 -300 108 -446 70 -116 128 -176 128 -133 0 6 -4 8 -9 5 -5 -3 -12
1 -15 9 -4 13 -2 14 14 5 22 -12 26 -25 9 -35 -7 -5 -2 -16 12 -31 24 -25 45
-33 33 -11 -4 7 -3 8 2 4 5 -5 9 -16 9 -25 0 -9 6 -16 13 -14 8 1 11 -1 8 -6
-3 -5 9 -16 25 -26 17 -10 28 -20 25 -23 -7 -8 -45 21 -115 90 -114 111 -191
234 -234 372 -33 105 -40 179 -28 295 9 93 50 310 59 310 2 0 1 -26 -2 -57z
m-266 -194 c0 -5 -4 -9 -10 -9 -5 0 -10 7 -10 16 0 8 5 12 10 9 6 -3 10 -10
10 -16z m27 -11 c-3 -7 -5 -2 -5 12 0 14 2 19 5 13 2 -7 2 -19 0 -25z m1952
-22 c-9 -8 -10 -7 -5 7 3 10 7 26 7 35 1 9 4 6 6 -7 3 -13 -1 -28 -8 -35z
m-1069 3 c0 -5 4 -8 9 -4 5 3 20 -9 33 -27 l23 -33 -42 30 c-42 29 -53 45 -33
45 6 0 10 -5 10 -11z m-1240 -29 c0 -5 -2 -10 -4 -10 -3 0 -8 5 -11 10 -3 6
-1 10 4 10 6 0 11 -4 11 -10z m2203 3 c-13 -2 -33 -2 -45 0 -13 2 -3 4 22 4
25 0 35 -2 23 -4z m111 -9 c3 -8 2 -12 -4 -9 -6 3 -10 10 -10 16 0 14 7 11 14
-7z m-2284 -99 c0 -5 -5 -3 -10 5 -5 8 -10 20 -10 25 0 6 5 3 10 -5 5 -8 10
-19 10 -25z m561 -18 c-6 -6 -11 -20 -12 -31 0 -12 -3 -15 -6 -8 -8 20 6 64
18 56 8 -4 7 -10 0 -17z m803 -53 c3 -8 2 -12 -4 -9 -6 3 -10 10 -10 16 0 14
7 11 14 -7z m253 -16 c-3 -8 -6 -5 -6 6 -1 11 2 17 5 13 3 -3 4 -12 1 -19z
m-1542 -69 c9 -17 15 -33 13 -35 -3 -2 -12 12 -21 31 -21 43 -13 47 8 4z m554
-64 c0 -5 -6 1 -14 15 -8 14 -14 30 -14 35 0 6 6 -1 14 -15 8 -14 14 -29 14
-35z m6 -25 c3 -5 1 -10 -4 -10 -6 0 -11 5 -11 10 0 6 2 10 4 10 3 0 8 -4 11
-10z m1416 -73 c-10 -9 -11 -8 -5 6 3 10 9 15 12 12 3 -3 0 -11 -7 -18z m-496
-129 c-20 -71 -95 -175 -174 -240 -18 -16 -30 -28 -28 -28 21 0 161 32 196 44
56 20 65 14 11 -8 -66 -26 -265 -62 -255 -45 4 5 13 9 21 9 8 0 47 33 87 73
52 51 83 93 107 144 36 75 46 89 35 51z m-765 -88 c0 -5 -2 -10 -4 -10 -3 0
-8 5 -11 10 -3 6 -1 10 4 10 6 0 11 -4 11 -10z m-2946 -352 c-3 -18 -7 -40 -8
-49 -7 -36 16 -145 38 -183 59 -100 174 -175 342 -224 91 -27 356 -77 444 -84
31 -3 35 -7 38 -33 2 -16 1 -53 -3 -82 -5 -44 -10 -54 -28 -57 -12 -3 -122
-15 -243 -27 l-221 -22 -109 32 c-133 39 -278 107 -341 158 -109 90 -123 242
-38 414 23 48 118 189 127 189 4 0 5 -15 2 -32z m1941 -73 c146 -234 146 -426
0 -527 -86 -59 -215 -111 -370 -147 l-90 -22 -240 29 -240 28 -5 79 c-3 44 -5
81 -4 83 1 2 44 7 95 13 212 21 440 75 556 130 78 37 161 112 193 175 22 43
25 62 25 156 0 102 1 106 18 90 10 -9 38 -48 62 -87z m1886 -587 c54 -16 117
-72 143 -127 20 -44 21 -61 24 -472 l3 -426 -26 -5 c-14 -3 -27 -3 -29 1 -2 3
-4 186 -5 406 -1 220 -4 415 -7 432 -9 46 -77 120 -122 133 -58 16 -94 12
-151 -17 -46 -22 -57 -34 -80 -82 -25 -54 -26 -64 -29 -246 l-2 -190 27 35
c74 93 117 116 161 83 l27 -20 3 -266 2 -266 -195 -3 -195 -3 0 110 c0 124 5
136 91 236 l49 57 0 227 c0 151 4 242 12 269 15 50 80 118 128 133 47 15 124
16 171 1z m-1681 -329 c53 -151 122 -350 154 -444 117 -336 217 -601 244 -645
15 -24 43 -55 62 -68 19 -13 37 -27 38 -33 2 -5 -89 -9 -232 -9 -249 0 -272 5
-206 42 61 35 62 99 4 280 l-35 108 -227 0 -228 0 -26 -97 c-52 -188 -46 -249
25 -288 72 -38 51 -45 -138 -45 -188 0 -205 5 -142 45 59 38 91 112 233 544
127 389 172 524 261 778 37 106 43 112 103 108 10 -1 45 -87 110 -276z m2769
264 c5 -10 25 -65 44 -123 150 -448 370 -1071 413 -1168 31 -71 67 -118 105
-137 16 -9 29 -20 29 -25 0 -6 -91 -10 -240 -10 -197 0 -240 2 -240 14 0 7 13
19 29 26 40 16 65 70 57 124 -4 22 -23 92 -43 154 l-37 112 -223 0 -223 0 -11
-27 c-24 -63 -50 -182 -52 -240 -2 -56 1 -65 27 -92 16 -17 38 -33 48 -37 10
-3 18 -12 18 -20 0 -12 -30 -14 -175 -14 -193 0 -208 6 -137 51 53 35 86 108
197 449 53 162 124 378 157 480 33 102 86 256 117 342 l56 158 37 0 c25 0 40
-6 47 -17z m1221 -10 c0 -10 -15 -25 -32 -33 -43 -21 -67 -72 -78 -171 -14
-119 -13 -1013 1 -1063 24 -88 101 -120 227 -97 83 15 148 49 204 105 44 43
109 156 122 208 4 18 12 25 23 24 15 -3 17 -11 15 -47 -4 -57 -52 -371 -58
-381 -3 -4 -198 -8 -435 -8 l-429 0 0 25 c0 18 5 25 19 25 29 0 68 53 80 110
15 70 15 1130 0 1185 -11 42 -54 95 -76 95 -7 0 -13 9 -13 20 0 19 7 20 215
20 198 0 215 -1 215 -17z m-2311 -52 c14 -10 34 -30 45 -45 20 -27 21 -41 24
-442 l3 -414 -26 0 -25 0 0 390 c0 431 0 434 -61 466 -43 22 -91 11 -123 -27
-14 -17 -28 -40 -31 -52 -3 -12 -9 -40 -14 -62 -8 -37 -9 -34 -10 33 -1 103
20 141 96 167 44 15 88 10 122 -14z m-2674 -196 c46 -149 39 -269 -26 -461
-78 -234 -75 -300 23 -463 l60 -102 -28 -56 c-19 -36 -47 -70 -77 -95 -57 -45
-70 -48 -57 -12 13 34 13 109 -1 159 -9 34 -115 283 -124 293 -2 2 -9 -14 -15
-35 -7 -21 -35 -84 -62 -141 -56 -119 -72 -185 -58 -245 13 -59 13 -59 -19
-43 -36 19 -75 65 -106 126 l-24 47 45 74 c88 142 89 144 88 254 0 91 -4 111
-41 215 -22 63 -46 146 -53 184 -16 87 -8 222 19 299 20 57 71 157 81 157 3 0
4 -54 2 -120 -3 -94 1 -135 16 -197 21 -84 112 -323 122 -323 12 0 107 212
132 290 19 64 23 96 23 217 l0 142 33 -57 c17 -31 39 -79 47 -107z m1811 -596
l34 -21 34 21 c39 24 73 26 100 6 28 -21 12 -30 -18 -10 -24 16 -27 16 -65 -6
-36 -20 -39 -24 -23 -35 9 -7 22 -13 27 -13 6 0 1 6 -9 14 -18 14 -18 15 15
29 18 8 38 12 44 8 5 -3 -4 -12 -20 -18 -17 -7 -25 -13 -18 -14 7 0 10 -11 8
-27 -2 -16 -2 -22 1 -15 3 6 15 12 25 12 11 0 18 4 14 10 -3 5 -12 7 -20 3
-11 -4 -13 -1 -9 11 8 21 17 20 39 -4 21 -24 37 -26 29 -5 -4 8 -10 12 -15 9
-5 -3 -9 -1 -9 4 0 12 26 23 34 15 16 -16 -7 -103 -33 -123 -4 -3 -21 -24 -39
-46 -31 -40 -32 -46 -31 -125 1 -46 4 -97 8 -114 6 -29 4 -31 -59 -61 -36 -17
-68 -29 -72 -27 -5 2 -8 69 -8 149 l0 145 -50 71 c-57 82 -62 113 -24 152 32
31 65 33 110 5z m804 -284 c0 -157 -3 -166 -83 -242 -96 -91 -97 -91 -388 -95
-140 -2 -234 0 -209 4 25 3 139 7 253 7 239 1 239 1 330 90 83 80 87 90 87
231 l0 120 -185 0 -184 0 -4 -152 -3 -153 -2 163 -2 162 195 0 195 0 0 -135z
m-237 98 c-24 -2 -62 -2 -85 0 -24 2 -5 4 42 4 47 0 66 -2 43 -4z m90 0 c-7
-2 -21 -2 -30 0 -10 3 -4 5 12 5 17 0 24 -2 18 -5z m90 -20 c-7 -2 -19 -2 -25
0 -7 3 -2 5 12 5 14 0 19 -2 13 -5z m-332 -282 c-8 -5 -58 -8 -110 -6 -76 3
-105 -1 -145 -16 -94 -36 -137 -62 -131 -77 4 -12 3 -13 -10 -2 -14 11 -13 14
4 26 10 8 52 29 92 48 71 33 79 34 194 35 76 0 115 -3 106 -8z m-346 -129 c-3
-3 -11 0 -18 7 -9 10 -8 11 6 5 10 -3 15 -9 12 -12z m-1805 -435 c0 -26 114
-364 128 -379 14 -17 11 -18 -51 -18 -38 0 -67 4 -67 10 0 6 5 10 10 10 13 0
13 24 -2 71 l-11 39 -57 0 c-51 0 -58 -2 -64 -22 -10 -37 -7 -83 6 -96 9 -9 2
-12 -35 -12 -49 0 -57 6 -32 24 9 6 39 92 67 191 28 99 55 185 60 191 10 14
48 6 48 -9z m1040 11 c0 -28 114 -374 126 -384 24 -20 15 -24 -51 -24 -37 0
-65 4 -65 10 0 6 5 10 10 10 13 0 13 25 -1 73 l-10 38 -57 -3 c-57 -3 -57 -3
-66 -41 -7 -27 -6 -44 2 -58 18 -28 16 -29 -35 -29 l-46 0 20 23 c13 14 40 90
73 210 49 176 54 187 76 187 13 0 24 -6 24 -12z m1476 -14 c33 -32 26 -67 -22
-112 -19 -18 -34 -37 -32 -40 10 -24 74 -121 79 -122 8 0 19 37 19 64 0 11 -7
28 -17 38 -15 17 -14 18 42 18 l59 0 -22 -20 c-12 -12 -34 -44 -48 -72 l-26
-50 33 -34 c18 -19 39 -34 46 -34 18 0 16 -17 -3 -24 -32 -12 -63 -5 -81 18
l-18 24 -29 -21 c-16 -11 -50 -22 -77 -25 -44 -4 -51 -2 -80 27 -29 29 -31 36
-26 79 4 38 12 53 46 85 40 37 41 38 26 67 -19 37 -19 83 0 120 24 47 92 54
131 14z m2527 14 c9 1 17 -7 17 -16 0 -9 3 -34 6 -54 5 -25 3 -38 -5 -38 -6 0
-11 7 -11 16 0 8 -13 29 -30 45 -25 26 -36 30 -72 27 -39 -3 -45 -7 -62 -42
-24 -49 -32 -161 -17 -223 17 -65 44 -93 93 -93 l38 0 0 75 c0 58 -4 77 -15
81 -33 13 -12 24 45 24 33 0 60 -4 60 -10 0 -5 -4 -10 -10 -10 -6 0 -10 -32
-10 -75 0 -73 -1 -75 -31 -90 -49 -26 -120 -30 -160 -10 -60 31 -87 87 -88
180 -1 81 15 134 52 173 38 40 78 53 137 46 25 -4 53 -6 63 -6z m451 4 c3 -4
30 -89 61 -188 31 -98 63 -186 71 -195 23 -26 17 -29 -51 -29 -58 0 -85 12
-53 22 9 3 10 17 3 54 l-10 49 -60 0 -59 0 -9 -44 c-6 -29 -5 -47 2 -54 20
-20 12 -27 -29 -27 -40 0 -52 12 -27 27 7 4 38 95 67 201 44 154 58 192 72
192 9 0 19 -4 22 -8z m-6689 -16 c41 -18 55 -42 55 -99 0 -48 -29 -97 -57 -97
-19 0 -15 -11 38 -101 22 -39 47 -73 55 -76 30 -11 12 -23 -34 -23 l-49 0 -43
83 c-71 136 -80 139 -80 27 0 -62 3 -82 15 -86 34 -13 11 -24 -50 -24 -37 0
-65 4 -65 10 0 6 7 10 15 10 13 0 15 27 15 179 0 109 -4 182 -10 186 -27 17
-2 25 75 25 51 0 99 -6 120 -14z m395 -28 l0 -40 -31 26 c-21 18 -42 26 -70
26 l-39 0 0 -75 c0 -73 1 -75 24 -75 35 0 56 10 56 26 0 8 5 14 10 14 6 0 10
-25 10 -55 0 -30 -4 -55 -10 -55 -5 0 -10 6 -10 14 0 16 -21 26 -56 26 -23 0
-24 -2 -24 -85 l0 -85 42 0 c34 0 49 6 76 33 l34 32 -8 -40 c-3 -22 -9 -43
-11 -47 -6 -11 -233 -10 -233 1 0 5 7 11 15 15 13 4 15 34 15 181 0 110 -4
175 -10 175 -5 0 -10 7 -10 15 0 13 19 15 115 14 l115 -1 0 -40z m282 -7 c3
-25 1 -50 -4 -55 -5 -6 -8 -3 -8 6 0 27 -58 78 -90 78 -28 0 -42 -11 -53 -41
-10 -29 22 -74 78 -107 69 -42 85 -65 85 -125 0 -42 -5 -54 -34 -83 -34 -34
-36 -35 -110 -32 l-74 3 -5 45 c-2 25 0 49 5 55 5 5 8 2 8 -7 0 -29 43 -68 80
-74 48 -7 72 12 72 59 0 45 -11 60 -69 93 -65 39 -93 77 -93 129 0 32 7 51 26
75 26 30 28 31 104 29 l78 -3 4 -45z m329 -4 c3 -27 1 -50 -3 -53 -4 -3 -8 -1
-8 5 0 19 -52 71 -71 71 -18 0 -19 -9 -19 -180 0 -113 4 -180 10 -180 6 0 10
-4 10 -10 0 -6 -27 -10 -60 -10 -57 0 -78 11 -45 24 13 4 15 34 15 181 0 170
-1 175 -20 175 -22 0 -70 -41 -70 -60 0 -5 -5 -10 -10 -10 -6 0 -9 12 -6 28 2
15 5 37 5 50 1 22 2 23 134 20 l132 -3 6 -48z m449 44 c0 -6 -4 -13 -10 -16
-6 -4 -10 -68 -10 -158 0 -165 6 -189 54 -201 39 -10 75 10 92 50 20 47 17
305 -3 312 -29 9 -10 22 34 22 44 0 45 -1 30 -18 -14 -15 -17 -41 -17 -143 -1
-208 -17 -240 -123 -247 -60 -4 -67 -2 -98 26 l-34 30 -3 159 c-2 87 -8 162
-13 168 -19 19 -8 25 46 25 30 0 55 -4 55 -9z m466 -7 c46 -22 64 -78 43 -137
-8 -25 -23 -46 -36 -52 -13 -5 -23 -13 -23 -18 0 -14 93 -167 101 -167 5 0 9
-4 9 -10 0 -5 -20 -10 -45 -10 l-44 0 -48 90 c-26 49 -54 92 -60 94 -16 7 -19
-149 -3 -159 25 -15 5 -25 -50 -25 -57 0 -78 11 -45 24 13 4 15 34 15 180 0
106 -4 177 -10 181 -27 17 -2 25 76 25 58 0 97 -5 120 -16z m659 -114 c101
-188 96 -186 93 -44 -2 99 -6 125 -21 141 -22 25 -13 33 35 33 41 0 45 -5 23
-34 -12 -16 -15 -57 -15 -199 0 -177 0 -178 -22 -175 -16 2 -40 36 -95 133
-41 72 -79 142 -86 158 -6 15 -14 27 -17 27 -3 0 -4 -62 -2 -137 3 -102 7
-142 18 -154 22 -24 17 -29 -31 -29 -47 0 -56 9 -30 30 12 10 15 43 15 175 0
132 -3 165 -15 175 -26 21 -17 30 33 30 l47 0 70 -130z m459 114 c10 -25 7
-84 -4 -84 -5 0 -10 5 -10 12 0 19 -42 58 -62 58 -17 0 -18 -12 -18 -174 0
-106 4 -177 10 -181 25 -15 5 -25 -50 -25 -57 0 -78 11 -45 24 13 4 15 34 15
181 l0 175 -24 0 c-23 0 -58 -32 -69 -63 -10 -27 -17 3 -11 46 l7 47 127 0
c107 0 129 -3 134 -16z m299 -26 c3 -24 4 -44 3 -46 -2 -1 -17 11 -34 28 -24
23 -39 30 -70 30 l-40 0 -4 -75 -3 -75 32 0 c22 0 37 7 45 20 21 33 28 23 28
-35 0 -58 -7 -68 -28 -35 -8 13 -23 20 -42 20 l-30 0 0 -85 0 -85 41 0 c33 0
47 6 75 34 36 36 41 31 28 -33 l-6 -31 -119 0 c-108 0 -144 8 -104 24 13 4 15
33 15 175 0 137 -3 172 -15 185 -8 8 -15 17 -15 20 0 3 53 6 119 6 l118 0 6
-42z m807 -90 c23 -73 44 -142 47 -152 6 -20 33 55 74 207 l21 77 49 0 c46 0
62 -11 39 -25 -6 -4 -10 -77 -10 -186 0 -113 4 -179 10 -179 6 0 10 -4 10 -10
0 -6 -27 -10 -60 -10 -57 0 -78 11 -45 24 12 4 15 31 15 153 0 81 -4 141 -9
133 -4 -8 -27 -82 -51 -163 -32 -109 -48 -147 -58 -145 -10 2 -32 59 -63 157
-27 85 -51 157 -55 160 -3 3 -4 -59 -2 -137 3 -122 6 -146 21 -157 27 -19 21
-25 -28 -25 -25 0 -45 2 -45 4 0 2 7 17 15 32 22 42 22 326 0 348 -23 23 -19
26 35 26 l49 0 41 -132z m430 122 c0 -5 -4 -10 -10 -10 -6 0 -10 -68 -10 -185
0 -117 4 -185 10 -185 6 0 10 -4 10 -10 0 -6 -27 -10 -60 -10 -57 0 -78 11
-45 24 13 4 15 33 15 175 0 137 -3 172 -15 185 -24 23 -19 26 45 26 33 0 60
-4 60 -10z m190 1 c0 -5 -5 -11 -11 -13 -7 -2 1 -28 21 -68 31 -61 33 -63 47
-45 8 11 24 40 34 64 18 42 19 44 2 57 -16 12 -12 13 35 14 28 0 52 -2 52 -6
0 -3 -13 -19 -29 -36 -15 -16 -43 -55 -62 -85 l-33 -56 42 -82 c24 -46 54 -95
67 -109 14 -15 25 -29 25 -32 0 -2 -29 -4 -65 -4 -59 0 -80 9 -55 25 9 6 -48
135 -61 135 -3 0 -18 -22 -32 -49 -27 -50 -35 -91 -17 -91 6 0 10 -4 10 -10 0
-5 -22 -10 -50 -10 -52 0 -61 8 -34 31 9 7 38 46 65 86 l49 72 -51 96 c-29 53
-58 99 -65 102 -33 12 -9 23 51 23 36 0 65 -4 65 -9z m475 -24 c39 -39 55 -89
55 -177 0 -75 -27 -141 -72 -174 -40 -28 -124 -33 -164 -8 -106 67 -92 337 20
382 12 5 45 9 75 9 47 1 57 -3 86 -32z m222 15 c-14 -16 -17 -45 -17 -190 l0
-172 34 0 c26 0 41 8 66 36 17 20 33 34 35 32 3 -2 1 -24 -3 -49 l-8 -44 -99
-3 c-109 -3 -142 3 -112 19 15 9 17 29 17 189 0 113 -4 180 -10 180 -5 0 -10
5 -10 10 0 6 27 10 62 10 59 0 60 -1 45 -18z m406 -12 c44 -39 60 -96 56 -199
-4 -85 -18 -114 -71 -154 -37 -28 -107 -33 -151 -12 -54 25 -77 81 -77 182 0
89 12 136 44 172 28 31 51 40 113 40 44 1 58 -4 86 -29z m597 20 c0 -5 -4 -10
-10 -10 -6 0 -10 -66 -10 -179 0 -109 4 -182 10 -186 24 -15 6 -25 -45 -25
-51 0 -69 10 -45 25 6 4 10 75 10 180 0 105 -4 176 -10 180 -24 15 -6 25 45
25 30 0 55 -4 55 -10z"/>
<path d="M5335 7797 c-1 -176 -39 -341 -134 -572 -61 -148 -75 -208 -76 -325
0 -93 3 -111 26 -160 51 -105 49 -105 108 0 96 174 151 339 173 520 13 118 5
362 -17 450 -18 75 -68 220 -75 220 -3 0 -5 -60 -5 -133z"/>
<path d="M5345 6879 c-4 -6 -5 -12 -2 -15 2 -3 7 2 10 11 7 17 1 20 -8 4z"/>
<path d="M3901 6754 c0 -11 3 -14 6 -6 3 7 2 16 -1 19 -3 4 -6 -2 -5 -13z"/>
<path d="M5090 6743 c13 -18 25 -33 27 -33 8 0 -17 38 -33 51 -11 9 -9 2 6
-18z"/>
<path d="M4371 6714 c0 -11 3 -14 6 -6 3 7 2 16 -1 19 -3 4 -6 -2 -5 -13z"/>
<path d="M5131 6719 c-1 -9 9 -24 22 -35 22 -19 22 -19 6 1 -9 11 -19 27 -22
35 -5 13 -6 13 -6 -1z"/>
<path d="M3892 6665 c0 -16 2 -22 5 -12 2 9 2 23 0 30 -3 6 -5 -1 -5 -18z"/>
<path d="M6361 6634 c0 -11 3 -14 6 -6 3 7 2 16 -1 19 -3 4 -6 -2 -5 -13z"/>
<path d="M4346 6625 c-3 -9 -6 -22 -5 -28 0 -7 5 -1 10 12 5 13 8 26 5 28 -2
2 -6 -3 -10 -12z"/>
<path d="M3892 6590 c0 -14 2 -19 5 -12 2 6 2 18 0 25 -3 6 -5 1 -5 -13z"/>
<path d="M6352 6580 c0 -14 2 -19 5 -12 2 6 2 18 0 25 -3 6 -5 1 -5 -13z"/>
<path d="M6326 6565 c-9 -26 -7 -32 5 -12 6 10 9 21 6 23 -2 3 -7 -2 -11 -11z"/>
<path d="M5311 6553 c0 -5 14 -19 32 -32 l32 -25 -29 32 c-31 33 -36 37 -35
25z"/>
<path d="M5387 6539 c7 -7 15 -10 18 -7 3 3 -2 9 -12 12 -14 6 -15 5 -6 -5z"/>
<path d="M3892 6505 c0 -16 2 -22 5 -12 2 9 2 23 0 30 -3 6 -5 -1 -5 -18z"/>
<path d="M6342 6510 c0 -14 2 -19 5 -12 2 6 2 18 0 25 -3 6 -5 1 -5 -13z"/>
<path d="M3911 6485 c-1 -25 15 -52 26 -42 4 5 2 11 -4 15 -6 4 -13 16 -16 27
l-5 20 -1 -20z"/>
<path d="M5380 6494 c0 -6 14 -29 32 -50 17 -22 28 -30 24 -20 -4 11 -2 22 4
26 7 5 6 11 -5 20 -13 11 -15 10 -9 -6 4 -13 -3 -9 -20 11 -14 17 -26 25 -26
19z"/>
<path d="M3964 6483 c10 -11 36 -12 36 -2 0 5 -10 9 -22 9 -12 0 -18 -3 -14
-7z"/>
<path d="M6322 6460 c0 -19 2 -27 5 -17 2 9 2 25 0 35 -3 9 -5 1 -5 -18z"/>
<path d="M4300 6469 c0 -5 4 -8 9 -5 5 4 12 0 14 -6 3 -8 6 -6 6 5 1 9 -6 17
-14 17 -8 0 -15 -5 -15 -11z"/>
<path d="M3891 6440 c1 -19 4 -46 8 -60 l7 -25 8 23 c5 14 15 22 31 22 34 0
55 10 55 26 0 8 -9 14 -20 14 -11 0 -20 -7 -20 -16 0 -9 -7 -14 -17 -12 -10 1
-24 -1 -32 -6 -11 -7 -13 -4 -8 15 3 13 2 31 -3 39 -7 11 -9 6 -9 -20z"/>
<path d="M4098 6453 c12 -2 32 -2 45 0 12 2 2 4 -23 4 -25 0 -35 -2 -22 -4z"/>
<path d="M6020 6450 c0 -5 9 -10 20 -10 11 0 20 5 20 10 0 6 -9 10 -20 10 -11
0 -20 -4 -20 -10z"/>
<path d="M5497 6407 c-16 -11 -16 -14 -2 -32 16 -20 16 -20 12 3 -3 12 -1 20
4 16 5 -3 9 2 9 10 0 19 -1 19 -23 3z"/>
<path d="M4836 6795 c8 -37 14 -45 14 -19 0 10 -5 26 -10 34 -8 11 -9 7 -4
-15z"/>
<path d="M4880 6733 c0 -6 8 -17 18 -24 16 -13 16 -13 2 6 -8 11 -16 22 -17
24 -2 2 -3 0 -3 -6z"/>
<path d="M4885 6670 c-3 -5 -1 -18 5 -27 9 -15 10 -14 4 7 -6 23 -6 24 12 10
18 -14 18 -14 5 3 -16 20 -18 20 -26 7z"/>
<path d="M4931 6615 c-1 -17 -3 -18 -11 -5 -5 8 -10 10 -10 3 0 -21 143 -185
201 -231 14 -10 16 -9 14 10 -3 33 -4 34 -13 21 -5 -9 -19 0 -46 27 -21 22
-34 40 -29 40 5 0 18 7 29 15 16 13 16 14 1 9 -13 -5 -16 -2 -11 12 5 18 5 18
-6 1 -6 -9 -15 -15 -21 -12 -5 4 -6 -2 -2 -12 4 -11 -8 -5 -30 16 -21 19 -37
36 -37 37 0 2 7 10 16 19 15 15 14 15 -9 10 -23 -6 -26 -4 -30 27 -2 18 -5 24
-6 13z"/>
<path d="M4970 6616 c0 -2 7 -9 15 -16 9 -7 15 -8 15 -2 0 5 -7 12 -15 16 -8
3 -15 4 -15 2z"/>
<path d="M4992 6553 c-10 -4 -10 -8 -1 -19 6 -8 16 -14 21 -14 7 0 6 5 -1 13
-6 8 -8 17 -4 20 7 8 4 8 -15 0z"/>
<path d="M5480 4170 c-8 -5 -10 -10 -5 -10 6 0 17 5 25 10 8 5 11 10 5 10 -5
0 -17 -5 -25 -10z"/>
<path d="M5561 4114 c0 -11 3 -14 6 -6 3 7 2 16 -1 19 -3 4 -6 -2 -5 -13z"/>
<path d="M5315 3989 c-4 -6 -5 -12 -2 -15 2 -3 7 2 10 11 7 17 1 20 -8 4z"/>
<path d="M5392 3978 c-13 -13 -16 -57 -4 -75 4 -6 19 -14 34 -18 30 -8 68 22
68 53 0 41 -69 69 -98 40z"/>
<path d="M5276 3942 l-19 -27 24 22 c12 12 21 24 18 27 -2 2 -13 -8 -23 -22z"/>
<path d="M5500 3910 c-6 -11 -8 -20 -6 -20 3 0 10 9 16 20 6 11 8 20 6 20 -3
0 -10 -9 -16 -20z"/>
<path d="M5235 3879 c-4 -6 -5 -12 -2 -15 2 -3 7 2 10 11 7 17 1 20 -8 4z"/>
<path d="M5370 3886 c0 -2 8 -10 18 -17 15 -13 16 -12 3 4 -13 16 -21 21 -21
13z"/>
<path d="M5445 3860 c-3 -6 1 -7 9 -4 18 7 21 14 7 14 -6 0 -13 -4 -16 -10z"/>
<path d="M5552 3850 c0 -14 2 -19 5 -12 2 6 2 18 0 25 -3 6 -5 1 -5 -13z"/>
<path d="M5200 3770 c0 -5 5 -10 11 -10 5 0 7 5 4 10 -3 6 -8 10 -11 10 -2 0
-4 -4 -4 -10z"/>
<path d="M5552 3716 c3 -31 1 -56 -4 -56 -4 0 -9 24 -10 53 l-1 52 -6 -55 -6
-55 -165 -5 -165 -6 188 -2 187 -2 0 59 c0 34 -5 63 -11 67 -9 5 -10 -9 -7
-50z"/>
<path d="M5450 3690 c20 -13 33 -13 25 0 -3 6 -14 10 -23 10 -15 0 -15 -2 -2
-10z"/>
<path d="M5200 3669 c0 -5 5 -7 10 -4 6 3 10 8 10 11 0 2 -4 4 -10 4 -5 0 -10
-5 -10 -11z"/>
<path d="M5770 3650 c0 -5 5 -10 10 -10 6 0 10 5 10 10 0 6 -4 10 -10 10 -5 0
-10 -4 -10 -10z"/>
<path d="M3710 4127 c-24 -78 -54 -176 -66 -217 -41 -136 -72 -235 -79 -252
-7 -17 6 -18 194 -18 111 0 201 1 201 3 0 1 -43 135 -95 297 -52 162 -95 300
-95 307 0 6 -4 14 -8 17 -4 2 -28 -59 -52 -137z"/>
<path d="M6550 4062 c-35 -114 -78 -255 -96 -314 l-32 -108 199 0 c109 0 199
1 199 3 0 1 -27 85 -60 187 -33 102 -76 239 -97 305 -20 66 -39 123 -43 127
-3 4 -34 -86 -70 -200z"/>
<path d="M5693 3880 c0 -25 2 -35 4 -22 2 12 2 32 0 45 -2 12 -4 2 -4 -23z"/>
<path d="M5680 3749 c0 -5 5 -7 10 -4 6 3 10 8 10 11 0 2 -4 4 -10 4 -5 0 -10
-5 -10 -11z"/>
<path d="M5683 3660 c-1 -11 2 -20 8 -20 5 0 9 9 9 20 0 11 -4 20 -8 20 -4 0
-8 -9 -9 -20z"/>
<path d="M4735 3731 c17 -10 32 -17 34 -15 7 7 -33 33 -49 34 -8 0 -1 -8 15
-19z"/>
<path d="M4680 3730 c-8 -5 -12 -12 -9 -15 4 -3 12 1 19 10 14 17 11 19 -10 5z"/>
<path d="M4696 3711 c-4 -6 -2 -11 3 -11 6 0 11 -8 12 -17 0 -10 3 -13 5 -6 8
18 -11 49 -20 34z"/>
<path d="M4785 3700 c3 -5 11 -10 16 -10 6 0 7 5 4 10 -3 6 -11 10 -16 10 -6
0 -7 -4 -4 -10z"/>
<path d="M4660 3671 c0 -18 47 -95 70 -116 18 -17 20 -31 20 -172 l0 -154 23
7 c12 3 39 15 60 26 36 18 38 21 33 56 -10 65 -11 193 0 200 18 13 45 62 39
72 -3 6 1 7 9 4 10 -4 16 -1 16 9 0 8 7 20 15 27 8 7 12 17 8 23 -3 5 -12 -2
-20 -17 -13 -26 -33 -35 -33 -16 0 6 5 10 10 10 6 0 10 8 10 18 -1 15 -2 15
-16 -3 -8 -11 -13 -31 -11 -44 3 -14 0 -32 -6 -42 -9 -14 -16 -15 -41 -6 -17
5 -40 17 -50 26 -18 15 -19 15 -11 -4 13 -35 18 -65 9 -65 -17 0 -38 19 -31
27 5 4 12 1 17 -7 6 -8 10 -10 10 -5 0 6 -7 20 -15 32 -8 12 -12 28 -9 36 3 8
-2 17 -10 20 -19 7 -22 -9 -3 -17 6 -4 2 -4 -10 -2 -13 2 -23 -1 -23 -7 0 -7
-12 11 -26 38 -31 58 -34 62 -34 46z m100 -118 c0 -12 -2 -12 -15 1 -8 8 -15
17 -15 20 0 3 7 3 15 0 8 -4 15 -13 15 -21z m51 -60 c-12 -20 -14 -14 -5 12 4
9 9 14 11 11 3 -2 0 -13 -6 -23z m-6 -223 c3 -5 1 -10 -4 -10 -6 0 -11 5 -11
10 0 6 2 10 4 10 3 0 8 -4 11 -10z"/>
<path d="M4693 3655 c7 -13 17 -27 24 -29 7 -3 4 7 -5 25 -21 35 -35 39 -19 4z"/>
<path d="M4852 3584 c9 -9 21 -13 27 -9 16 10 3 25 -22 25 -20 0 -20 -1 -5
-16z"/>
<path d="M2980 2591 c0 -10 -6 -36 -13 -57 -8 -22 -17 -51 -21 -66 -6 -28 -6
-28 44 -28 50 0 50 0 44 28 -4 15 -13 44 -21 66 -7 21 -13 47 -13 57 0 11 -4
19 -10 19 -5 0 -10 -8 -10 -19z"/>
<path d="M4027 2600 c-3 -8 -15 -48 -26 -87 l-19 -73 49 0 c27 0 49 3 49 8 -1
27 -49 164 -53 152z"/>
<path d="M5454 2656 c-7 -29 13 -96 28 -96 17 0 47 44 48 71 0 50 -64 72 -76
25z"/>
<path d="M5427 2465 c-26 -54 -22 -99 9 -124 33 -26 65 -27 94 -3 l23 18 -48
72 c-26 40 -51 72 -55 72 -3 0 -14 -16 -23 -35z"/>
<path d="M8472 2536 c-12 -41 -22 -79 -22 -85 0 -6 19 -11 45 -11 53 0 53 0
21 98 l-23 73 -21 -75z"/>
<path d="M1730 2586 c0 -91 8 -104 54 -86 33 12 46 39 46 94 0 51 -24 76 -72
76 l-28 0 0 -84z"/>
<path d="M3650 2580 c0 -87 1 -90 23 -90 35 0 66 27 73 65 12 67 -15 115 -67
115 l-29 0 0 -90z"/>
<path d="M6931 2649 c-39 -63 -39 -235 0 -298 18 -29 23 -32 62 -29 59 4 77
42 77 158 0 139 -28 200 -90 200 -23 0 -35 -7 -49 -31z"/>
<path d="M7564 2656 c-21 -33 -33 -144 -24 -224 10 -83 32 -112 86 -112 59 0
69 25 69 170 0 115 -2 132 -21 157 -30 40 -86 44 -110 9z"/>
</g>
</svg>
